<svg width="24" height="25" viewBox="0 0 24 25" fill="none" xmlns="http://www.w3.org/2000/svg">
<g id="ComprehensiveDentalServices" clip-path="url(#clip0_421_341)">
<g id="Clip path group">
<mask id="mask0_421_341" style="mask-type:luminance" maskUnits="userSpaceOnUse" x="0" y="0" width="24" height="25">
<g id="clip0_955_931">
<path id="Vector" d="M24 0.5H0V24.5H24V0.5Z" fill="white"/>
</g>
</mask>
<g mask="url(#mask0_421_341)">
<g id="Group">
<path id="Vector_2" d="M12 24.5C18.6274 24.5 24 19.1274 24 12.5C24 5.87257 18.6274 0.5 12 0.5C5.37257 0.5 0 5.87257 0 12.5C0 19.1274 5.37257 24.5 12 24.5Z" fill="#36308C"/>
<path id="Vector_3" d="M16.4686 7.55706H7.52856V18.8399H16.4686V7.55706Z" stroke="white" stroke-miterlimit="10"/>
<path id="Vector_4" d="M14.0971 7.15989H9.90285C9.68857 7.15989 9.51428 7.33417 9.51428 7.54846V8.83131H14.4857V7.54846C14.4857 7.33417 14.3114 7.15989 14.0971 7.15989Z" fill="white"/>
<path id="Vector_5" d="M13.2171 6.15709H10.7857C10.5571 6.15709 10.3714 6.3428 10.3714 6.57137V7.15994H13.6314V6.57137C13.6314 6.3428 13.4457 6.15709 13.2171 6.15709Z" fill="white"/>
<path id="Vector_6" d="M15.54 8.29714H8.45715V17.9171H15.54V8.29714Z" fill="white"/>
<path id="Vector_7" d="M10.5229 13.5543H9.16V14.9171H10.5229V13.5543Z" fill="#36308C"/>
<path id="Vector_8" d="M10.5229 15.7285H9.16V17.0914H10.5229V15.7285Z" fill="#36308C"/>
<path id="Vector_9" d="M14.8343 13.5543H11.5629V13.9257H14.8343V13.5543Z" fill="#36308C"/>
<path id="Vector_10" d="M14.2543 14.28H11.5629V14.6543H14.2543V14.28Z" fill="#36308C"/>
<path id="Vector_11" d="M14.8343 15.7285H11.5629V16.1028H14.8343V15.7285Z" fill="#36308C"/>
<path id="Vector_12" d="M14.2543 16.4542H11.5629V16.8285H14.2543V16.4542Z" fill="#36308C"/>
<path id="Vector_13" d="M15.8143 7.82854H8V8.29426H15.8143V7.82854Z" fill="#36308C"/>
<path id="Vector_14" d="M9.76284 14.68C9.73142 14.68 9.69999 14.6657 9.67713 14.64L9.39713 14.3086C9.35713 14.2629 9.36284 14.1914 9.41142 14.1514C9.45713 14.1114 9.52856 14.1171 9.56856 14.1657L9.75713 14.3886L10.1428 13.8571C10.18 13.8086 10.2486 13.7971 10.3 13.8314C10.3486 13.8686 10.36 13.9371 10.3257 13.9886L9.85713 14.6371C9.83713 14.6657 9.8057 14.6829 9.77142 14.6829C9.7657 14.68 9.7657 14.68 9.76284 14.68Z" fill="white"/>
<path id="Vector_15" d="M9.76284 16.8886C9.73142 16.8886 9.69999 16.8743 9.67713 16.8486L9.39713 16.5171C9.35713 16.4714 9.36284 16.4 9.41142 16.36C9.45713 16.32 9.52856 16.3257 9.56856 16.3743L9.75713 16.5971L10.1428 16.0657C10.18 16.0171 10.2486 16.0057 10.3 16.04C10.3486 16.0771 10.36 16.1457 10.3257 16.1971L9.85713 16.8457C9.83713 16.8743 9.8057 16.8914 9.77142 16.8914C9.7657 16.8886 9.7657 16.8886 9.76284 16.8886Z" fill="white"/>
<path id="Vector_16" d="M12 11.0885C12 11.0885 12.2029 11.08 12.3172 11.3943C12.4886 11.8714 12.4629 12.7571 12.8343 12.3885C13.08 12.1457 13.0829 11.7428 13.0257 11.4028C12.9657 11.0571 13.0372 10.7057 13.1886 10.3914C13.4543 9.8514 13.1057 9.20283 12.6143 9.14569C12.3914 9.11997 12.2457 9.15712 12.1514 9.20569C12.0543 9.25712 11.94 9.25712 11.8457 9.20569C11.7514 9.15712 11.6057 9.11997 11.3829 9.14569C10.8714 9.20569 10.5114 9.9114 10.8486 10.4657C11 10.7171 11.0514 11.02 10.9914 11.3114C10.9172 11.6714 10.8972 12.1257 11.1657 12.3914C11.5372 12.76 11.5114 11.8743 11.6829 11.3971C11.7972 11.08 12 11.0885 12 11.0885Z" fill="#36308C"/>
</g>
</g>
</g>
</g>
<defs>
<clipPath id="clip0_421_341">
<rect width="24" height="24" fill="white" transform="translate(0 0.5)"/>
</clipPath>
</defs>
</svg>
